<svg xmlns="http://www.w3.org/2000/svg" xmlns:xlink="http://www.w3.org/1999/xlink" version="1.1" x="0px" y="0px" viewBox="0 0 100 125" enable-background="new 0 0 100 100" xml:space="preserve"><g><path fill="none" d="M66.354,47.003h-1.226h-8.581h-3.405h-6.223h-3.222h-6.901h-8.8H23.42h-6.999h-5.016V67.19   c0,0.124,0.101,0.225,0.225,0.225h76.737c0.125,0,0.226-0.101,0.226-0.225V47.003H73.746H66.354z M13.305,51.145h11.869v1.878   H13.305V51.145z M34.22,56.086H13.305v-1.878H34.22V56.086z M80.413,51.306c2.07,0.094,3.814,1.361,4.544,3.303l-4.544,1.477   V51.306z M75.595,54.099c0.622-1.22,1.682-2.125,2.984-2.547c0.46-0.149,0.872-0.228,1.335-0.247v5.467l5.197-1.689   c0.337,1.232,0.205,2.527-0.38,3.673c-0.621,1.221-1.682,2.126-2.983,2.55c-0.516,0.167-1.049,0.253-1.585,0.253   c-0.002,0,0,0-0.002,0c-2.227,0-4.187-1.425-4.874-3.545C74.863,56.711,74.973,55.32,75.595,54.099z"/><polygon fill="none" points="11.406,36.673 16.847,43.483 27.745,33.021 39.915,41.4 44.185,33.731 49.128,41.058 55.854,31.198    65.123,39.535 72.963,29.973 81.556,37.244 88.594,26.342 88.594,19.55 11.406,19.55  "/><rect x="13.305" y="51.145" width="11.869" height="1.878"/><rect x="13.305" y="54.208" width="20.915" height="1.878"/><path d="M80.161,61.558c0.002,0,0,0,0.002,0c0.536,0,1.069-0.086,1.585-0.253c1.302-0.424,2.362-1.329,2.983-2.55   c0.585-1.146,0.717-2.44,0.38-3.673l-5.197,1.689v-5.467c-0.463,0.02-0.875,0.098-1.335,0.247   c-1.303,0.422-2.362,1.327-2.984,2.547c-0.622,1.222-0.731,2.612-0.308,3.914C75.975,60.133,77.935,61.558,80.161,61.558z"/><path d="M80.413,51.306v4.779l4.544-1.477C84.228,52.667,82.483,51.399,80.413,51.306z"/><path d="M92.183,13.916H52.817v-1.325c0-1.556-1.261-2.817-2.817-2.817c-1.555,0-2.817,1.261-2.817,2.817v1.325H7.817   C6.262,13.916,5,15.177,5,16.733c0,1.498,1.174,2.712,2.65,2.8V67.19c0,2.195,1.787,3.98,3.981,3.98h33.835l-15.848,15.85   c-0.733,0.733-0.733,1.922,0,2.655c0.367,0.367,0.847,0.551,1.328,0.551c0.481,0,0.962-0.184,1.328-0.551l15.848-15.849v9.657   c0,1.037,0.841,1.878,1.878,1.878c1.038,0,1.878-0.841,1.878-1.878v-9.658l15.85,15.85c0.366,0.367,0.847,0.551,1.327,0.551   s0.961-0.184,1.328-0.551c0.733-0.733,0.733-1.922,0-2.655l-15.848-15.85h33.833c2.195,0,3.981-1.785,3.981-3.98V19.533   c1.477-0.088,2.65-1.302,2.65-2.8C95,15.177,93.738,13.916,92.183,13.916z M88.594,67.19c0,0.124-0.101,0.225-0.226,0.225H11.631   c-0.124,0-0.225-0.101-0.225-0.225V47.003h5.016h6.999h4.575h8.8h6.901h3.222h6.223h3.405h8.581h1.226h7.393h14.848V67.19z    M88.594,26.342l-7.038,10.901l-8.593-7.271l-7.84,9.562l-9.269-8.337l-6.727,9.859l-4.943-7.327l-4.27,7.669l-12.17-8.379   L16.847,43.483l-5.44-6.81V19.55h77.188V26.342z"/></g><text x="0" y="115" fill="#000000" font-size="5px" font-weight="bold" font-family="'Helvetica Neue', Helvetica, Arial-Unicode, Arial, Sans-serif">Created by DesignNex</text><text x="0" y="120" fill="#000000" font-size="5px" font-weight="bold" font-family="'Helvetica Neue', Helvetica, Arial-Unicode, Arial, Sans-serif">from the Noun Project</text></svg>