<svg xmlns="http://www.w3.org/2000/svg" xmlns:xlink="http://www.w3.org/1999/xlink" xmlns:sketch="http://www.bohemiancoding.com/sketch/ns" viewBox="0 0 32 40" version="1.1" x="0px" y="0px"><title>user-man-enter-login-signup</title><desc>Created with Sketch.</desc><g stroke="none" stroke-width="1" fill="none" fill-rule="evenodd" sketch:type="MSPage"><g sketch:type="MSLayerGroup" fill="#000000"><path d="M12.6459989,18.023314 C12.6943704,17.769924 12.7378458,17.5323243 12.7700195,17.3533122 C11.9366073,16.1843971 11.3890373,14.8784062 10.9748843,12.9903938 C10.9637962,12.939846 10.953043,12.8894284 10.9426248,12.8391454 C10.7231947,12.874104 10.0379068,12.8536746 10.012211,11.2435805 C9.98833412,9.85688241 9.49426554,9.27832627 10.4370978,8.87303086 C10.4370978,8.87303086 10.3526102,8.28590352 10.3097542,7.43429336 C10.2460824,6.16759214 9.86160278,4.02785276 12.1837863,2.57809515 C14.5512748,1.10017501 14.7429024,0.80446854 14.7429024,0.80446854 L14.6504558,1.769341 C14.6504558,1.769341 15.3614482,0.776024888 16.3986461,0.00479929536 L16.3708185,0.403458727 C16.3567373,0.630595583 16.4381637,1.2042539 16.5820375,1.35302547 C16.6181589,1.38853474 16.6573416,1.42955406 16.6965242,1.46751225 L16.6732595,0.947117832 C16.6732595,0.947117832 17.3987506,1.1681324 17.96996,1.51465386 C17.9803679,1.50975603 19.5825704,2.40116105 19.8929704,2.60380875 C22.0774025,4.02846499 21.8447555,5.80025491 21.7976139,7.06267053 C21.7676147,7.91428068 21.6996573,8.87364309 21.6996573,8.87364309 C22.6431018,9.2789385 22.4037204,9.82076092 22.3639255,11.207459 C22.3189685,12.7094307 21.7121484,12.6264197 21.5124633,12.557771 C21.4861253,12.7008361 21.4570168,12.8450765 21.4251401,12.9903938 C21.0109871,14.8784062 20.4033585,16.3594072 19.5776978,17.3533122 C19.5161252,17.4305826 19.4533389,17.5051603 19.3893253,17.5770396 C19.4927782,18.2558876 19.6710312,19.3529275 19.7711369,19.5539731 C20.1305151,19.6347873 22.8849789,21.0624385 23.20574,21.1959706 C26.2613735,22.4675696 25.3020111,21.729834 27.7888842,22.9726583 C28.5073734,23.3319029 29.0684816,23.8994069 29.5057382,24.5870272 C26.6655461,29.0438499 21.6794305,32 16.0028691,32 C13.9441013,32 11.9761518,31.6111603 10.1684546,30.902915 C9.7884813,30.9667639 9.398122,31 9,31 C5.13400675,31 2,27.8659932 2,24 C2,20.1340068 5.13400675,17 9,17 C10.3357402,17 11.5840978,17.3741293 12.6459989,18.023314 L12.6459989,18.023314 L12.6459989,18.023314 L12.6459989,18.023314 Z M14.379264,19.5204933 C14.4120762,19.3753387 14.447117,19.2095273 14.4870659,19.015989 C14.5081009,18.9140819 14.5574039,18.6664284 14.5602768,18.651794 C15.0627159,18.8704246 15.6111007,19 16.1987164,19 C16.685786,19 17.1385693,18.9323398 17.5586968,18.7976994 C17.5752603,18.8943984 17.5915639,18.9871569 17.6075798,19.0756308 C17.7360949,19.7855607 17.8074081,20.0998029 17.9795034,20.4454276 C18.2476764,20.9840083 19.2192603,21.4804012 19.2214596,21.4813374 C19.3008893,21.5151493 19.4144861,21.5665813 19.5562488,21.6330682 C19.8196928,21.7566237 20.1601155,21.9224091 20.5946741,22.1378593 C20.6266484,22.1537154 20.6266484,22.1537154 20.6586392,22.1695933 C20.9001478,22.2894847 21.6608615,22.6694994 21.7100152,22.6939724 C22.1226911,22.899438 22.3016923,22.98654 22.4357941,23.0423662 C23.1753196,23.3501191 23.7466614,23.5690726 24.2238828,23.7314465 C24.5649704,23.8475011 24.5404335,23.8402122 25.1668915,24.0201723 C25.2077644,24.0319535 25.2077644,24.0319535 25.2454225,24.0430129 C25.6173961,24.1529035 25.9727548,24.3015361 26.8935136,24.7616888 C24.5460064,27.5977783 20.8451057,30 16.0015733,30 C14.9727839,30 14.0038446,29.8859824 13.0914901,29.6804014 C14.8532869,28.409183 16,26.3385061 16,24 C16,22.2960881 15.3912037,20.7343683 14.379264,19.5204933 L14.379264,19.5204933 L14.379264,19.5204933 L14.379264,19.5204933 Z M16.2047965,17.361254 C15.4197746,17.361254 14.6620729,17.2872632 13.9164713,16.281452 C13.2985465,15.447876 12.8165038,14.4506592 12.4603385,12.7659712 C11.5946891,8.67138672 12.9496989,7.97910173 13.6105154,8.24853723 C14.5913633,8.64845946 15.3009438,8.8432531 16.2047965,8.8411257 L16.1799927,8.8411257 C17.0838454,8.8432531 17.7934259,8.64845946 18.7742738,8.24853723 C19.4350904,7.97910173 20.7901001,8.67138672 19.9244508,12.7659712 C19.5682854,14.4506592 19.0862427,15.447876 18.468318,16.281452 C17.7227163,17.2872632 16.9650147,17.361254 16.1799927,17.361254 L16.2047965,17.361254 L16.2047965,17.361254 L16.2047965,17.361254 Z M9,29 C11.7614237,29 14,26.7614237 14,24 C14,21.2385763 11.7614237,19 9,19 C6.23857625,19 4,21.2385763 4,24 C4,26.7614237 6.23857625,29 9,29 L9,29 L9,29 Z M6.30007451,25.0154401 C5.7477503,25.0154401 5.30000305,24.5715753 5.30000305,24.0154401 C5.30000305,23.4631554 5.74725502,23.0154401 6.30007451,23.0154401 L8.63329225,23.0154401 L8.31337939,22.6955273 C7.88459443,22.2667423 7.88224136,21.5738976 8.31481302,21.1413259 C8.74438975,20.7117492 9.44365348,20.7145314 9.86901434,21.1398923 L11.9771519,23.2480299 C12.138844,23.409722 12.2398976,23.6089633 12.2798574,23.8176377 C12.3502501,24.1662047 12.2493501,24.5410307 11.9792797,24.8111011 L9.87114216,26.9192386 C9.4457813,27.3445995 8.74651756,27.3473817 8.31694083,26.917805 C7.88436917,26.4852333 7.88672225,25.7923886 8.3155072,25.3636037 L8.66367077,25.0154401 L6.30007451,25.0154401 L6.30007451,25.0154401 L6.30007451,25.0154401 Z" sketch:type="MSShapeGroup"/></g></g><text x="0" y="47" fill="#000000" font-size="5px" font-weight="bold" font-family="'Helvetica Neue', Helvetica, Arial-Unicode, Arial, Sans-serif">Created by Denis Klyuchnikov</text><text x="0" y="52" fill="#000000" font-size="5px" font-weight="bold" font-family="'Helvetica Neue', Helvetica, Arial-Unicode, Arial, Sans-serif">from the Noun Project</text></svg>